<mxfile host="app.diagrams.net" modified="2021-01-20T13:28:34.155Z" agent="5.0 (Windows)" etag="_CC3NOKlPJma_fRHNhwM" version="14.2.4" type="github">
  <diagram name="Page-1" id="e7e014a7-5840-1c2e-5031-d8a46d1fe8dd">
    <mxGraphModel dx="1422" dy="1617" grid="1" gridSize="10" guides="1" tooltips="1" connect="1" arrows="1" fold="1" page="1" pageScale="1" pageWidth="1169" pageHeight="826" background="#ffffff" math="0" shadow="0">
      <root>
        <mxCell id="0" />
        <mxCell id="1" parent="0" />
        <mxCell id="5ePowHYOYD9ucS5NQ5Tp-41" value="Job" style="swimlane;fontStyle=0;childLayout=stackLayout;horizontal=1;startSize=26;fillColor=none;horizontalStack=0;resizeParent=1;resizeParentMax=0;resizeLast=0;collapsible=1;marginBottom=0;" vertex="1" parent="1">
          <mxGeometry x="480" y="120" width="240" height="598" as="geometry">
            <mxRectangle x="520" y="210" width="100" height="26" as="alternateBounds" />
          </mxGeometry>
        </mxCell>
        <mxCell id="5ePowHYOYD9ucS5NQ5Tp-42" value="ID:INT NOT NULL AUTO_INCREMENT" style="text;strokeColor=none;fillColor=none;align=left;verticalAlign=top;spacingLeft=4;spacingRight=4;overflow=hidden;rotatable=0;points=[[0,0.5],[1,0.5]];portConstraint=eastwest;" vertex="1" parent="5ePowHYOYD9ucS5NQ5Tp-41">
          <mxGeometry y="26" width="240" height="26" as="geometry" />
        </mxCell>
        <mxCell id="5ePowHYOYD9ucS5NQ5Tp-91" value="USER_ID" style="text;strokeColor=none;fillColor=none;align=left;verticalAlign=top;spacingLeft=4;spacingRight=4;overflow=hidden;rotatable=0;points=[[0,0.5],[1,0.5]];portConstraint=eastwest;" vertex="1" parent="5ePowHYOYD9ucS5NQ5Tp-41">
          <mxGeometry y="52" width="240" height="26" as="geometry" />
        </mxCell>
        <mxCell id="5ePowHYOYD9ucS5NQ5Tp-92" value="GROUP_ID" style="text;strokeColor=none;fillColor=none;align=left;verticalAlign=top;spacingLeft=4;spacingRight=4;overflow=hidden;rotatable=0;points=[[0,0.5],[1,0.5]];portConstraint=eastwest;" vertex="1" parent="5ePowHYOYD9ucS5NQ5Tp-41">
          <mxGeometry y="78" width="240" height="26" as="geometry" />
        </mxCell>
        <mxCell id="5ePowHYOYD9ucS5NQ5Tp-90" value="QUEUE_ID" style="text;strokeColor=none;fillColor=none;align=left;verticalAlign=top;spacingLeft=4;spacingRight=4;overflow=hidden;rotatable=0;points=[[0,0.5],[1,0.5]];portConstraint=eastwest;" vertex="1" parent="5ePowHYOYD9ucS5NQ5Tp-41">
          <mxGeometry y="104" width="240" height="26" as="geometry" />
        </mxCell>
        <mxCell id="5ePowHYOYD9ucS5NQ5Tp-93" value="CLUSTER_ID" style="text;strokeColor=none;fillColor=none;align=left;verticalAlign=top;spacingLeft=4;spacingRight=4;overflow=hidden;rotatable=0;points=[[0,0.5],[1,0.5]];portConstraint=eastwest;" vertex="1" parent="5ePowHYOYD9ucS5NQ5Tp-41">
          <mxGeometry y="130" width="240" height="26" as="geometry" />
        </mxCell>
        <mxCell id="5ePowHYOYD9ucS5NQ5Tp-43" value="job_name: VARCHAR(128) NOT NULL " style="text;strokeColor=none;fillColor=none;align=left;verticalAlign=top;spacingLeft=4;spacingRight=4;overflow=hidden;rotatable=0;points=[[0,0.5],[1,0.5]];portConstraint=eastwest;" vertex="1" parent="5ePowHYOYD9ucS5NQ5Tp-41">
          <mxGeometry y="156" width="240" height="26" as="geometry" />
        </mxCell>
        <mxCell id="5ePowHYOYD9ucS5NQ5Tp-44" value="job_number: VARCHAR(64) NOT NULL " style="text;strokeColor=none;fillColor=none;align=left;verticalAlign=top;spacingLeft=4;spacingRight=4;overflow=hidden;rotatable=0;points=[[0,0.5],[1,0.5]];portConstraint=eastwest;" vertex="1" parent="5ePowHYOYD9ucS5NQ5Tp-41">
          <mxGeometry y="182" width="240" height="26" as="geometry" />
        </mxCell>
        <mxCell id="5ePowHYOYD9ucS5NQ5Tp-50" value="submit_time: BIGINT(20) NOT NULL " style="text;strokeColor=none;fillColor=none;align=left;verticalAlign=top;spacingLeft=4;spacingRight=4;overflow=hidden;rotatable=0;points=[[0,0.5],[1,0.5]];portConstraint=eastwest;" vertex="1" parent="5ePowHYOYD9ucS5NQ5Tp-41">
          <mxGeometry y="208" width="240" height="26" as="geometry" />
        </mxCell>
        <mxCell id="5ePowHYOYD9ucS5NQ5Tp-51" value="start_time: BIGINT(20) NOT NULL " style="text;strokeColor=none;fillColor=none;align=left;verticalAlign=top;spacingLeft=4;spacingRight=4;overflow=hidden;rotatable=0;points=[[0,0.5],[1,0.5]];portConstraint=eastwest;" vertex="1" parent="5ePowHYOYD9ucS5NQ5Tp-41">
          <mxGeometry y="234" width="240" height="26" as="geometry" />
        </mxCell>
        <mxCell id="5ePowHYOYD9ucS5NQ5Tp-55" value="end_time: BIGINT(20) NOT NULL " style="text;strokeColor=none;fillColor=none;align=left;verticalAlign=top;spacingLeft=4;spacingRight=4;overflow=hidden;rotatable=0;points=[[0,0.5],[1,0.5]];portConstraint=eastwest;" vertex="1" parent="5ePowHYOYD9ucS5NQ5Tp-41">
          <mxGeometry y="260" width="240" height="26" as="geometry" />
        </mxCell>
        <mxCell id="5ePowHYOYD9ucS5NQ5Tp-56" value="faile: INT" style="text;strokeColor=none;fillColor=none;align=left;verticalAlign=top;spacingLeft=4;spacingRight=4;overflow=hidden;rotatable=0;points=[[0,0.5],[1,0.5]];portConstraint=eastwest;" vertex="1" parent="5ePowHYOYD9ucS5NQ5Tp-41">
          <mxGeometry y="286" width="240" height="26" as="geometry" />
        </mxCell>
        <mxCell id="5ePowHYOYD9ucS5NQ5Tp-54" value="exit_status: INT " style="text;strokeColor=none;fillColor=none;align=left;verticalAlign=top;spacingLeft=4;spacingRight=4;overflow=hidden;rotatable=0;points=[[0,0.5],[1,0.5]];portConstraint=eastwest;" vertex="1" parent="5ePowHYOYD9ucS5NQ5Tp-41">
          <mxGeometry y="312" width="240" height="26" as="geometry" />
        </mxCell>
        <mxCell id="5ePowHYOYD9ucS5NQ5Tp-53" value="ru_wallclock: BIGINT(20) NOT NULL" style="text;strokeColor=none;fillColor=none;align=left;verticalAlign=top;spacingLeft=4;spacingRight=4;overflow=hidden;rotatable=0;points=[[0,0.5],[1,0.5]];portConstraint=eastwest;" vertex="1" parent="5ePowHYOYD9ucS5NQ5Tp-41">
          <mxGeometry y="338" width="240" height="26" as="geometry" />
        </mxCell>
        <mxCell id="5ePowHYOYD9ucS5NQ5Tp-57" value="ru_utime: BIGINT(20) NOT NULL " style="text;strokeColor=none;fillColor=none;align=left;verticalAlign=top;spacingLeft=4;spacingRight=4;overflow=hidden;rotatable=0;points=[[0,0.5],[1,0.5]];portConstraint=eastwest;" vertex="1" parent="5ePowHYOYD9ucS5NQ5Tp-41">
          <mxGeometry y="364" width="240" height="26" as="geometry" />
        </mxCell>
        <mxCell id="5ePowHYOYD9ucS5NQ5Tp-59" value="ru_stime: BIGINT(20) NOT NULL " style="text;strokeColor=none;fillColor=none;align=left;verticalAlign=top;spacingLeft=4;spacingRight=4;overflow=hidden;rotatable=0;points=[[0,0.5],[1,0.5]];portConstraint=eastwest;" vertex="1" parent="5ePowHYOYD9ucS5NQ5Tp-41">
          <mxGeometry y="390" width="240" height="26" as="geometry" />
        </mxCell>
        <mxCell id="5ePowHYOYD9ucS5NQ5Tp-62" value="ru_maxrss: BIGINT(20) NOT NULL " style="text;strokeColor=none;fillColor=none;align=left;verticalAlign=top;spacingLeft=4;spacingRight=4;overflow=hidden;rotatable=0;points=[[0,0.5],[1,0.5]];portConstraint=eastwest;" vertex="1" parent="5ePowHYOYD9ucS5NQ5Tp-41">
          <mxGeometry y="416" width="240" height="26" as="geometry" />
        </mxCell>
        <mxCell id="5ePowHYOYD9ucS5NQ5Tp-65" value="project: VARCHAR(255) " style="text;strokeColor=none;fillColor=none;align=left;verticalAlign=top;spacingLeft=4;spacingRight=4;overflow=hidden;rotatable=0;points=[[0,0.5],[1,0.5]];portConstraint=eastwest;" vertex="1" parent="5ePowHYOYD9ucS5NQ5Tp-41">
          <mxGeometry y="442" width="240" height="26" as="geometry" />
        </mxCell>
        <mxCell id="5ePowHYOYD9ucS5NQ5Tp-66" value="slots: INT NOT NULL " style="text;strokeColor=none;fillColor=none;align=left;verticalAlign=top;spacingLeft=4;spacingRight=4;overflow=hidden;rotatable=0;points=[[0,0.5],[1,0.5]];portConstraint=eastwest;" vertex="1" parent="5ePowHYOYD9ucS5NQ5Tp-41">
          <mxGeometry y="468" width="240" height="26" as="geometry" />
        </mxCell>
        <mxCell id="5ePowHYOYD9ucS5NQ5Tp-64" value="cpu: REAL NOT NULL " style="text;strokeColor=none;fillColor=none;align=left;verticalAlign=top;spacingLeft=4;spacingRight=4;overflow=hidden;rotatable=0;points=[[0,0.5],[1,0.5]];portConstraint=eastwest;" vertex="1" parent="5ePowHYOYD9ucS5NQ5Tp-41">
          <mxGeometry y="494" width="240" height="26" as="geometry" />
        </mxCell>
        <mxCell id="5ePowHYOYD9ucS5NQ5Tp-63" value="mem: REAL NOT NULL&#xa; " style="text;strokeColor=none;fillColor=none;align=left;verticalAlign=top;spacingLeft=4;spacingRight=4;overflow=hidden;rotatable=0;points=[[0,0.5],[1,0.5]];portConstraint=eastwest;" vertex="1" parent="5ePowHYOYD9ucS5NQ5Tp-41">
          <mxGeometry y="520" width="240" height="26" as="geometry" />
        </mxCell>
        <mxCell id="5ePowHYOYD9ucS5NQ5Tp-61" value="io: REAL NOT NULL " style="text;strokeColor=none;fillColor=none;align=left;verticalAlign=top;spacingLeft=4;spacingRight=4;overflow=hidden;rotatable=0;points=[[0,0.5],[1,0.5]];portConstraint=eastwest;" vertex="1" parent="5ePowHYOYD9ucS5NQ5Tp-41">
          <mxGeometry y="546" width="240" height="26" as="geometry" />
        </mxCell>
        <mxCell id="5ePowHYOYD9ucS5NQ5Tp-60" value="maxvmem: REAL NOT NULL " style="text;strokeColor=none;fillColor=none;align=left;verticalAlign=top;spacingLeft=4;spacingRight=4;overflow=hidden;rotatable=0;points=[[0,0.5],[1,0.5]];portConstraint=eastwest;" vertex="1" parent="5ePowHYOYD9ucS5NQ5Tp-41">
          <mxGeometry y="572" width="240" height="26" as="geometry" />
        </mxCell>
        <mxCell id="5ePowHYOYD9ucS5NQ5Tp-87" style="edgeStyle=orthogonalEdgeStyle;rounded=0;orthogonalLoop=1;jettySize=auto;html=1;entryX=0;entryY=0.5;entryDx=0;entryDy=0;" edge="1" parent="1" source="5ePowHYOYD9ucS5NQ5Tp-67" target="5ePowHYOYD9ucS5NQ5Tp-53">
          <mxGeometry relative="1" as="geometry" />
        </mxCell>
        <mxCell id="5ePowHYOYD9ucS5NQ5Tp-67" value="User" style="swimlane;fontStyle=0;childLayout=stackLayout;horizontal=1;startSize=26;fillColor=none;horizontalStack=0;resizeParent=1;resizeParentMax=0;resizeLast=0;collapsible=1;marginBottom=0;" vertex="1" parent="1">
          <mxGeometry x="90" y="160" width="230" height="78" as="geometry" />
        </mxCell>
        <mxCell id="5ePowHYOYD9ucS5NQ5Tp-68" value="ID:INT NOT NULL AUTO_INCREMENT" style="text;strokeColor=none;fillColor=none;align=left;verticalAlign=top;spacingLeft=4;spacingRight=4;overflow=hidden;rotatable=0;points=[[0,0.5],[1,0.5]];portConstraint=eastwest;" vertex="1" parent="5ePowHYOYD9ucS5NQ5Tp-67">
          <mxGeometry y="26" width="230" height="26" as="geometry" />
        </mxCell>
        <mxCell id="5ePowHYOYD9ucS5NQ5Tp-70" value="Username: VARCHAR(255) NOT NULL " style="text;strokeColor=none;fillColor=none;align=left;verticalAlign=top;spacingLeft=4;spacingRight=4;overflow=hidden;rotatable=0;points=[[0,0.5],[1,0.5]];portConstraint=eastwest;" vertex="1" parent="5ePowHYOYD9ucS5NQ5Tp-67">
          <mxGeometry y="52" width="230" height="26" as="geometry" />
        </mxCell>
        <mxCell id="5ePowHYOYD9ucS5NQ5Tp-86" style="edgeStyle=orthogonalEdgeStyle;rounded=0;orthogonalLoop=1;jettySize=auto;html=1;entryX=1;entryY=0.5;entryDx=0;entryDy=0;" edge="1" parent="1" source="5ePowHYOYD9ucS5NQ5Tp-71" target="5ePowHYOYD9ucS5NQ5Tp-53">
          <mxGeometry relative="1" as="geometry" />
        </mxCell>
        <mxCell id="5ePowHYOYD9ucS5NQ5Tp-71" value="Group" style="swimlane;fontStyle=0;childLayout=stackLayout;horizontal=1;startSize=26;fillColor=none;horizontalStack=0;resizeParent=1;resizeParentMax=0;resizeLast=0;collapsible=1;marginBottom=0;" vertex="1" parent="1">
          <mxGeometry x="880" y="160" width="250" height="104" as="geometry" />
        </mxCell>
        <mxCell id="5ePowHYOYD9ucS5NQ5Tp-83" value="ID:INT NOT NULL AUTO_INCREMENT" style="text;strokeColor=none;fillColor=none;align=left;verticalAlign=top;spacingLeft=4;spacingRight=4;overflow=hidden;rotatable=0;points=[[0,0.5],[1,0.5]];portConstraint=eastwest;" vertex="1" parent="5ePowHYOYD9ucS5NQ5Tp-71">
          <mxGeometry y="26" width="250" height="26" as="geometry" />
        </mxCell>
        <mxCell id="5ePowHYOYD9ucS5NQ5Tp-72" value="Group_name: VARCHAR(255) NOT NULL " style="text;strokeColor=none;fillColor=none;align=left;verticalAlign=top;spacingLeft=4;spacingRight=4;overflow=hidden;rotatable=0;points=[[0,0.5],[1,0.5]];portConstraint=eastwest;" vertex="1" parent="5ePowHYOYD9ucS5NQ5Tp-71">
          <mxGeometry y="52" width="250" height="26" as="geometry" />
        </mxCell>
        <mxCell id="5ePowHYOYD9ucS5NQ5Tp-73" value="Owner: VARCHAR(255) NOT NULL " style="text;strokeColor=none;fillColor=none;align=left;verticalAlign=top;spacingLeft=4;spacingRight=4;overflow=hidden;rotatable=0;points=[[0,0.5],[1,0.5]];portConstraint=eastwest;" vertex="1" parent="5ePowHYOYD9ucS5NQ5Tp-71">
          <mxGeometry y="78" width="250" height="26" as="geometry" />
        </mxCell>
        <mxCell id="5ePowHYOYD9ucS5NQ5Tp-75" value="Queue" style="swimlane;fontStyle=0;childLayout=stackLayout;horizontal=1;startSize=26;fillColor=none;horizontalStack=0;resizeParent=1;resizeParentMax=0;resizeLast=0;collapsible=1;marginBottom=0;" vertex="1" parent="1">
          <mxGeometry x="260" y="780" width="220" height="78" as="geometry" />
        </mxCell>
        <mxCell id="5ePowHYOYD9ucS5NQ5Tp-84" value="ID:INT NOT NULL AUTO_INCREMENT" style="text;strokeColor=none;fillColor=none;align=left;verticalAlign=top;spacingLeft=4;spacingRight=4;overflow=hidden;rotatable=0;points=[[0,0.5],[1,0.5]];portConstraint=eastwest;" vertex="1" parent="5ePowHYOYD9ucS5NQ5Tp-75">
          <mxGeometry y="26" width="220" height="26" as="geometry" />
        </mxCell>
        <mxCell id="5ePowHYOYD9ucS5NQ5Tp-77" value="Hostname: VARCHAR(64) NOT NULL" style="text;strokeColor=none;fillColor=none;align=left;verticalAlign=top;spacingLeft=4;spacingRight=4;overflow=hidden;rotatable=0;points=[[0,0.5],[1,0.5]];portConstraint=eastwest;" vertex="1" parent="5ePowHYOYD9ucS5NQ5Tp-75">
          <mxGeometry y="52" width="220" height="26" as="geometry" />
        </mxCell>
        <mxCell id="5ePowHYOYD9ucS5NQ5Tp-79" value="Cluster" style="swimlane;fontStyle=0;childLayout=stackLayout;horizontal=1;startSize=26;fillColor=none;horizontalStack=0;resizeParent=1;resizeParentMax=0;resizeLast=0;collapsible=1;marginBottom=0;" vertex="1" parent="1">
          <mxGeometry x="720" y="780" width="220" height="78" as="geometry" />
        </mxCell>
        <mxCell id="5ePowHYOYD9ucS5NQ5Tp-85" value="ID:INT NOT NULL AUTO_INCREMENT" style="text;strokeColor=none;fillColor=none;align=left;verticalAlign=top;spacingLeft=4;spacingRight=4;overflow=hidden;rotatable=0;points=[[0,0.5],[1,0.5]];portConstraint=eastwest;" vertex="1" parent="5ePowHYOYD9ucS5NQ5Tp-79">
          <mxGeometry y="26" width="220" height="26" as="geometry" />
        </mxCell>
        <mxCell id="5ePowHYOYD9ucS5NQ5Tp-80" value="Hostname: VARCHAR(64) NOT NULL" style="text;strokeColor=none;fillColor=none;align=left;verticalAlign=top;spacingLeft=4;spacingRight=4;overflow=hidden;rotatable=0;points=[[0,0.5],[1,0.5]];portConstraint=eastwest;" vertex="1" parent="5ePowHYOYD9ucS5NQ5Tp-79">
          <mxGeometry y="52" width="220" height="26" as="geometry" />
        </mxCell>
        <mxCell id="5ePowHYOYD9ucS5NQ5Tp-88" style="edgeStyle=orthogonalEdgeStyle;rounded=0;orthogonalLoop=1;jettySize=auto;html=1;" edge="1" parent="1" source="5ePowHYOYD9ucS5NQ5Tp-84">
          <mxGeometry relative="1" as="geometry">
            <mxPoint x="600" y="720" as="targetPoint" />
            <Array as="points">
              <mxPoint x="600" y="819" />
            </Array>
          </mxGeometry>
        </mxCell>
        <mxCell id="5ePowHYOYD9ucS5NQ5Tp-89" style="edgeStyle=orthogonalEdgeStyle;rounded=0;orthogonalLoop=1;jettySize=auto;html=1;entryX=0.5;entryY=1.077;entryDx=0;entryDy=0;entryPerimeter=0;" edge="1" parent="1" source="5ePowHYOYD9ucS5NQ5Tp-85" target="5ePowHYOYD9ucS5NQ5Tp-60">
          <mxGeometry relative="1" as="geometry">
            <mxPoint x="600" y="719" as="targetPoint" />
            <Array as="points">
              <mxPoint x="600" y="819" />
            </Array>
          </mxGeometry>
        </mxCell>
        <mxCell id="5ePowHYOYD9ucS5NQ5Tp-94" value="MetaGroup" style="swimlane;fontStyle=0;childLayout=stackLayout;horizontal=1;startSize=26;fillColor=none;horizontalStack=0;resizeParent=1;resizeParentMax=0;resizeLast=0;collapsible=1;marginBottom=0;" vertex="1" parent="1">
          <mxGeometry x="880" y="-20" width="250" height="104" as="geometry" />
        </mxCell>
        <mxCell id="5ePowHYOYD9ucS5NQ5Tp-95" value="ID:INT NOT NULL AUTO_INCREMENT" style="text;strokeColor=none;fillColor=none;align=left;verticalAlign=top;spacingLeft=4;spacingRight=4;overflow=hidden;rotatable=0;points=[[0,0.5],[1,0.5]];portConstraint=eastwest;" vertex="1" parent="5ePowHYOYD9ucS5NQ5Tp-94">
          <mxGeometry y="26" width="250" height="26" as="geometry" />
        </mxCell>
        <mxCell id="5ePowHYOYD9ucS5NQ5Tp-96" value="Username: VARCHAR(255) NOT NULL " style="text;strokeColor=none;fillColor=none;align=left;verticalAlign=top;spacingLeft=4;spacingRight=4;overflow=hidden;rotatable=0;points=[[0,0.5],[1,0.5]];portConstraint=eastwest;" vertex="1" parent="5ePowHYOYD9ucS5NQ5Tp-94">
          <mxGeometry y="52" width="250" height="26" as="geometry" />
        </mxCell>
        <mxCell id="5ePowHYOYD9ucS5NQ5Tp-100" value="Group_name: VARCHAR(255) NOT NULL " style="text;strokeColor=none;fillColor=none;align=left;verticalAlign=top;spacingLeft=4;spacingRight=4;overflow=hidden;rotatable=0;points=[[0,0.5],[1,0.5]];portConstraint=eastwest;" vertex="1" parent="5ePowHYOYD9ucS5NQ5Tp-94">
          <mxGeometry y="78" width="250" height="26" as="geometry" />
        </mxCell>
        <mxCell id="5ePowHYOYD9ucS5NQ5Tp-101" style="edgeStyle=orthogonalEdgeStyle;rounded=0;orthogonalLoop=1;jettySize=auto;html=1;entryX=0.5;entryY=0;entryDx=0;entryDy=0;" edge="1" parent="1" source="5ePowHYOYD9ucS5NQ5Tp-100" target="5ePowHYOYD9ucS5NQ5Tp-71">
          <mxGeometry relative="1" as="geometry">
            <Array as="points">
              <mxPoint x="1005" y="90" />
              <mxPoint x="1005" y="90" />
            </Array>
          </mxGeometry>
        </mxCell>
      </root>
    </mxGraphModel>
  </diagram>
</mxfile>
